<svg width="54" height="52" viewBox="0 0 54 52" fill="none" xmlns="http://www.w3.org/2000/svg">
<path d="M27 4.2666C22.5499 4.2666 18.1998 5.51776 14.4997 7.86187C10.7996 10.206 7.91569 13.5377 6.21272 17.4358C4.50975 21.334 4.06417 25.6233 4.93234 29.7615C5.80051 33.8997 7.94343 37.7009 11.0901 40.6844C14.2368 43.6679 18.2459 45.6997 22.6105 46.5228C26.9751 47.3459 31.4991 46.9235 35.6104 45.3088C39.7217 43.6942 43.2357 40.9599 45.7081 37.4517C48.1804 33.9435 49.5 29.8189 49.5 25.5997C49.5 22.7982 48.918 20.0241 47.7873 17.4358C46.6566 14.8476 44.9992 12.4959 42.9099 10.5149C40.8206 8.53395 38.3402 6.96257 35.6104 5.89048C32.8806 4.8184 29.9548 4.2666 27 4.2666ZM27 42.6661C23.4399 42.6661 19.9598 41.6652 16.9997 39.7899C14.0397 37.9146 11.7326 35.2492 10.3702 32.1307C9.0078 29.0122 8.65134 25.5807 9.34588 22.2702C10.0404 18.9596 11.7547 15.9186 14.2721 13.5319C16.7894 11.1451 19.9967 9.51965 23.4884 8.86114C26.98 8.20263 30.5992 8.5406 33.8883 9.83232C37.1774 11.124 39.9886 13.3115 41.9665 16.118C43.9443 18.9246 45 22.2242 45 25.5997C45 30.126 43.1036 34.4669 39.7279 37.6674C36.3523 40.868 31.7739 42.6661 27 42.6661Z" fill="#231F20" fill-opacity="0.5"/>
<path d="M27 19.2002C28.2426 19.2002 29.25 18.2451 29.25 17.0669C29.25 15.8887 28.2426 14.9336 27 14.9336C25.7574 14.9336 24.75 15.8887 24.75 17.0669C24.75 18.2451 25.7574 19.2002 27 19.2002Z" fill="#231F20" fill-opacity="0.5"/>
<path d="M27 21.333C26.4033 21.333 25.831 21.5578 25.409 21.9578C24.9871 22.3579 24.75 22.9005 24.75 23.4663V34.1328C24.75 34.6986 24.9871 35.2412 25.409 35.6413C25.831 36.0414 26.4033 36.2661 27 36.2661C27.5967 36.2661 28.169 36.0414 28.591 35.6413C29.0129 35.2412 29.25 34.6986 29.25 34.1328V23.4663C29.25 22.9005 29.0129 22.3579 28.591 21.9578C28.169 21.5578 27.5967 21.333 27 21.333Z" fill="#231F20" fill-opacity="0.5"/>
</svg>
